<?xml version="1.0" encoding="UTF-8"?>
<svg xmlns="http://www.w3.org/2000/svg" xmlns:xlink="http://www.w3.org/1999/xlink" width="17px" height="17px" viewBox="0 0 17 17" version="1.1">
<g id="surface1">
<path style=" stroke:none;fill-rule:nonzero;fill:rgb(0%,0%,0%);fill-opacity:1;" d="M 12.667969 3.589844 C 13.320312 3.589844 13.847656 3.0625 13.847656 2.410156 L 13.847656 1.179688 C 13.847656 0.523438 13.320312 0 12.667969 0 C 12.019531 0 11.488281 0.523438 11.488281 1.179688 L 11.488281 2.414062 C 11.492188 3.0625 12.019531 3.589844 12.667969 3.589844 Z M 12.667969 3.589844 "/>
<path style=" stroke:none;fill-rule:nonzero;fill:rgb(0%,0%,0%);fill-opacity:1;" d="M 16.859375 2.042969 L 14.484375 2.042969 L 14.484375 2.640625 C 14.484375 3.628906 13.679688 4.433594 12.6875 4.433594 C 11.699219 4.433594 10.894531 3.628906 10.894531 2.640625 L 10.894531 2.042969 L 6.105469 2.042969 L 6.105469 2.640625 C 6.105469 3.628906 5.300781 4.433594 4.3125 4.433594 C 3.320312 4.433594 2.515625 3.628906 2.515625 2.640625 L 2.515625 2.042969 L 0.121094 2.011719 L 0.121094 17 L 15.679688 17 L 16.878906 16.996094 Z M 15.679688 15.804688 L 1.320312 15.804688 L 1.320312 6.230469 L 15.679688 6.230469 Z M 15.679688 15.804688 "/>
<path style=" stroke:none;fill-rule:nonzero;fill:rgb(0%,0%,0%);fill-opacity:1;" d="M 4.292969 3.589844 C 4.945312 3.589844 5.472656 3.0625 5.472656 2.410156 L 5.472656 1.179688 C 5.46875 0.523438 4.945312 0 4.292969 0 C 3.640625 0 3.113281 0.523438 3.113281 1.179688 L 3.113281 2.414062 C 3.113281 3.0625 3.640625 3.589844 4.292969 3.589844 Z M 4.292969 3.589844 "/>
<path style=" stroke:none;fill-rule:nonzero;fill:rgb(0%,0%,0%);fill-opacity:1;" d="M 4.550781 12.695312 C 4.796875 12.832031 5.359375 13.058594 5.921875 13.058594 C 6.636719 13.058594 6.996094 12.714844 6.996094 12.277344 C 6.996094 11.691406 6.414062 11.429688 5.8125 11.429688 L 5.25 11.429688 L 5.25 10.441406 L 5.792969 10.441406 C 6.253906 10.441406 6.832031 10.261719 6.832031 9.761719 C 6.832031 9.410156 6.550781 9.144531 5.964844 9.144531 C 5.484375 9.144531 4.980469 9.355469 4.742188 9.5 L 4.460938 8.503906 C 4.816406 8.277344 5.511719 8.0625 6.28125 8.0625 C 7.53125 8.0625 8.226562 8.722656 8.226562 9.527344 C 8.226562 10.152344 7.875 10.648438 7.148438 10.894531 L 7.148438 10.910156 C 7.855469 11.039062 8.425781 11.574219 8.425781 12.351562 C 8.425781 13.382812 7.511719 14.144531 6.019531 14.144531 C 5.257812 14.144531 4.617188 13.945312 4.273438 13.734375 Z M 4.550781 12.695312 "/>
<path style=" stroke:none;fill-rule:nonzero;fill:rgb(0%,0%,0%);fill-opacity:1;" d="M 11.089844 9.382812 L 11.074219 9.382812 L 9.953125 9.917969 L 9.726562 8.882812 L 11.289062 8.160156 L 12.421875 8.160156 L 12.421875 14.042969 L 11.089844 14.042969 Z M 11.089844 9.382812 "/>
</g>
</svg>
